<svg xmlns="http://www.w3.org/2000/svg" width="1200" height="320" viewBox="0 0 1200 320" role="img" aria-label="Invoice Maker 2026">
  <defs>
    <linearGradient id="bg" x1="0" y1="0" x2="1200" y2="320" gradientUnits="userSpaceOnUse">
      <stop offset="0%" stop-color="#070b14"/>
      <stop offset="55%" stop-color="#0d1528"/>
      <stop offset="100%" stop-color="#101c33"/>
    </linearGradient>
    <linearGradient id="accent" x1="0" y1="0" x2="1200" y2="0" gradientUnits="userSpaceOnUse">
      <stop offset="0%" stop-color="#22d3ee"/>
      <stop offset="50%" stop-color="#67e8f9"/>
      <stop offset="100%" stop-color="#ef4136"/>
    </linearGradient>
  </defs>

  <rect width="1200" height="320" fill="url(#bg)"/>
  <circle cx="980" cy="60" r="120" fill="#22d3ee" fill-opacity="0.08"/>
  <circle cx="180" cy="260" r="90" fill="#ef4136" fill-opacity="0.08"/>

  <rect x="48" y="48" width="1104" height="224" rx="18" fill="#0f1729" stroke="#1f2b45" stroke-width="1"/>
  <rect x="48" y="48" width="1104" height="4" rx="2" fill="url(#accent)"/>

  <text x="88" y="98" fill="#7dd3fc" font-family="monospace" font-size="13" letter-spacing="2">AGENTIC ENGINEERING / GREENFIELD</text>
  <text x="88" y="156" fill="#f8fafc" font-family="sans-serif" font-size="52" font-weight="700">Invoice Maker 2026</text>
  <text x="88" y="196" fill="#94a3b8" font-family="sans-serif" font-size="20" font-weight="500">INVOICE / RAHUNOK - bilingual UA/EN - NACE 2.1-UA - USD/EUR</text>

  <rect x="88" y="220" width="168" height="34" rx="8" fill="#111b37" stroke="#24324f"/>
  <text x="104" y="242" fill="#e2e8f0" font-family="monospace" font-size="12">spec - test - ship</text>

  <rect x="272" y="220" width="148" height="34" rx="8" fill="#111b37" stroke="#24324f"/>
  <text x="288" y="242" fill="#e2e8f0" font-family="monospace" font-size="12">maker != checker</text>

  <rect x="436" y="220" width="132" height="34" rx="8" fill="#172554" stroke="#22d3ee" stroke-opacity="0.45"/>
  <text x="452" y="242" fill="#67e8f9" font-family="monospace" font-size="12">G4 slice cycle</text>

  <rect x="900" y="118" width="220" height="118" rx="14" fill="#0b1220" stroke="#24324f"/>
  <text x="920" y="144" fill="#64748b" font-family="monospace" font-size="11" letter-spacing="2">PIPELINE</text>
  <text x="920" y="172" fill="#f8fafc" font-family="sans-serif" font-size="18" font-weight="600">Form - NACE - HTML</text>
  <text x="920" y="198" fill="#94a3b8" font-family="sans-serif" font-size="14">deterministic / traceable</text>
  <circle cx="1090" cy="198" r="18" fill="#ef4136" fill-opacity="0.18" stroke="#ef4136" stroke-opacity="0.55"/>
  <text x="1084" y="203" fill="#ef4136" font-family="sans-serif" font-size="14" font-weight="700">I</text>
</svg>
